solid OpenSCAD_Model
  facet normal 1 -0 0
    outer loop
      vertex -44.625 -77.5 2
      vertex -44.625 -53.5 0
      vertex -44.625 -53.5 2
    endloop
  endfacet
  facet normal 1 0 0
    outer loop
      vertex -44.625 -53.5 0
      vertex -44.625 -77.5 2
      vertex -44.625 -77.5 0
    endloop
  endfacet
  facet normal 0 0 1
    outer loop
      vertex 44.375 -77.5 2
      vertex 39.375 -98 2
      vertex 44.375 -100 2
    endloop
  endfacet
  facet normal -0 0 1
    outer loop
      vertex 32.375 -77.5 2
      vertex 39.375 -98 2
      vertex 44.375 -77.5 2
    endloop
  endfacet
  facet normal -0 0 1
    outer loop
      vertex -44.625 -77.5 2
      vertex 39.375 -98 2
      vertex 32.375 -77.5 2
    endloop
  endfacet
  facet normal 0 0 1
    outer loop
      vertex -44.625 -77.5 2
      vertex -51.625 -98 2
      vertex 39.375 -98 2
    endloop
  endfacet
  facet normal -0 0 1
    outer loop
      vertex -56.625 -77.5 2
      vertex -51.625 -98 2
      vertex -44.625 -77.5 2
    endloop
  endfacet
  facet normal 0 0 1
    outer loop
      vertex -56.625 -100 2
      vertex -51.625 -98 2
      vertex -56.625 -77.5 2
    endloop
  endfacet
  facet normal 0 0 1
    outer loop
      vertex -51.625 -98 2
      vertex -56.625 -100 2
      vertex -51.625 -100 2
    endloop
  endfacet
  facet normal 0 0 1
    outer loop
      vertex 44.375 -100 2
      vertex 39.375 -98 2
      vertex 39.375 -100 2
    endloop
  endfacet
  facet normal 0 0 1
    outer loop
      vertex 44.375 -33 2
      vertex 32.375 -53.5 2
      vertex 44.375 -53.5 2
    endloop
  endfacet
  facet normal 0 0 1
    outer loop
      vertex 44.375 -33 2
      vertex -44.625 -53.5 2
      vertex 32.375 -53.5 2
    endloop
  endfacet
  facet normal -0 0 1
    outer loop
      vertex -56.625 -33 2
      vertex -44.625 -53.5 2
      vertex 44.375 -33 2
    endloop
  endfacet
  facet normal 0 0 1
    outer loop
      vertex -44.625 -53.5 2
      vertex -56.625 -33 2
      vertex -56.625 -53.5 2
    endloop
  endfacet
  facet normal 0 0 1
    outer loop
      vertex -56.625 -53.8721 2
      vertex -44.625 -53.5 2
      vertex -56.625 -53.5 2
    endloop
  endfacet
  facet normal 0 0 1
    outer loop
      vertex -44.625 -53.5 2
      vertex -56.625 -53.8721 2
      vertex -44.625 -77.5 2
    endloop
  endfacet
  facet normal -0 0 1
    outer loop
      vertex -56.625 -77.1279 2
      vertex -44.625 -77.5 2
      vertex -56.625 -53.8721 2
    endloop
  endfacet
  facet normal 0 0 1
    outer loop
      vertex -44.625 -77.5 2
      vertex -56.625 -77.1279 2
      vertex -56.625 -77.5 2
    endloop
  endfacet
  facet normal -0 0 1
    outer loop
      vertex 32.375 -53.5 2
      vertex 44.375 -53.8721 2
      vertex 44.375 -53.5 2
    endloop
  endfacet
  facet normal 0 0 1
    outer loop
      vertex 44.375 -53.8721 2
      vertex 32.375 -53.5 2
      vertex 44.375 -77.1279 2
    endloop
  endfacet
  facet normal 0 0 1
    outer loop
      vertex 32.375 -77.5 2
      vertex 44.375 -77.1279 2
      vertex 32.375 -53.5 2
    endloop
  endfacet
  facet normal 0 0 1
    outer loop
      vertex 44.375 -77.1279 2
      vertex 32.375 -77.5 2
      vertex 44.375 -77.5 2
    endloop
  endfacet
  facet normal -1 0 0
    outer loop
      vertex 32.375 -77.5 0
      vertex 32.375 -53.5 2
      vertex 32.375 -53.5 0
    endloop
  endfacet
  facet normal -1 -0 0
    outer loop
      vertex 32.375 -53.5 2
      vertex 32.375 -77.5 0
      vertex 32.375 -77.5 2
    endloop
  endfacet
  facet normal 0 0 -1
    outer loop
      vertex -61 -75.6758 0
      vertex -56.625 -77.1279 0
      vertex -58.756 -76.6749 0
    endloop
  endfacet
  facet normal 0 0 -1
    outer loop
      vertex -56.625 -77.1279 0
      vertex -61 -75.6758 0
      vertex -56.625 -53.8721 0
    endloop
  endfacet
  facet normal 0 0 -1
    outer loop
      vertex -61 -55.3242 0
      vertex -56.625 -53.8721 0
      vertex -61 -75.6758 0
    endloop
  endfacet
  facet normal 0 0 -1
    outer loop
      vertex -56.625 -53.8721 0
      vertex -61 -55.3242 0
      vertex -58.756 -54.3251 0
    endloop
  endfacet
  facet normal 0 0 -1
    outer loop
      vertex -62.9873 -74.2319 0
      vertex -61 -55.3242 0
      vertex -61 -75.6758 0
    endloop
  endfacet
  facet normal 0 0 -1
    outer loop
      vertex -62.9873 -74.2319 0
      vertex -62.9873 -56.7681 0
      vertex -61 -55.3242 0
    endloop
  endfacet
  facet normal 0 0 -1
    outer loop
      vertex -64.631 -72.4065 0
      vertex -62.9873 -56.7681 0
      vertex -62.9873 -74.2319 0
    endloop
  endfacet
  facet normal 0 0 -1
    outer loop
      vertex -64.631 -72.4065 0
      vertex -64.631 -58.5935 0
      vertex -62.9873 -56.7681 0
    endloop
  endfacet
  facet normal 0 0 -1
    outer loop
      vertex -65.8592 -70.2792 0
      vertex -64.631 -58.5935 0
      vertex -64.631 -72.4065 0
    endloop
  endfacet
  facet normal 0 0 -1
    outer loop
      vertex -65.8592 -70.2792 0
      vertex -65.8592 -60.7208 0
      vertex -64.631 -58.5935 0
    endloop
  endfacet
  facet normal 0 0 -1
    outer loop
      vertex -66.6182 -67.943 0
      vertex -65.8592 -60.7208 0
      vertex -65.8592 -70.2792 0
    endloop
  endfacet
  facet normal 0 0 -1
    outer loop
      vertex -66.6182 -67.943 0
      vertex -66.6182 -63.057 0
      vertex -65.8592 -60.7208 0
    endloop
  endfacet
  facet normal 0 -0 -1
    outer loop
      vertex -66.6182 -63.057 0
      vertex -66.6182 -67.943 0
      vertex -66.875 -65.5 0
    endloop
  endfacet
  facet normal 0 0 -1
    outer loop
      vertex 32.375 -77.5 0
      vertex 44.375 -77.1279 0
      vertex 44.375 -100 0
    endloop
  endfacet
  facet normal -0 0 -1
    outer loop
      vertex 44.375 -77.1279 0
      vertex 32.375 -77.5 0
      vertex 44.375 -53.8721 0
    endloop
  endfacet
  facet normal 0 0 -1
    outer loop
      vertex 32.375 -53.5 0
      vertex 44.375 -53.8721 0
      vertex 32.375 -77.5 0
    endloop
  endfacet
  facet normal 0 0 -1
    outer loop
      vertex 44.375 -100 0
      vertex -44.625 -77.5 0
      vertex 32.375 -77.5 0
    endloop
  endfacet
  facet normal 0 0 -1
    outer loop
      vertex -56.625 -77.1279 0
      vertex -44.625 -77.5 0
      vertex -56.625 -100 0
    endloop
  endfacet
  facet normal 0 0 -1
    outer loop
      vertex -56.625 -100 0
      vertex -44.625 -77.5 0
      vertex 44.375 -100 0
    endloop
  endfacet
  facet normal 0 0 -1
    outer loop
      vertex 54.3682 -67.943 0
      vertex 54.3682 -63.057 0
      vertex 54.625 -65.5 0
    endloop
  endfacet
  facet normal 0 0 -1
    outer loop
      vertex 53.6092 -70.2792 0
      vertex 54.3682 -63.057 0
      vertex 54.3682 -67.943 0
    endloop
  endfacet
  facet normal 0 0 -1
    outer loop
      vertex 53.6092 -70.2792 0
      vertex 53.6092 -60.7208 0
      vertex 54.3682 -63.057 0
    endloop
  endfacet
  facet normal 0 0 -1
    outer loop
      vertex 52.381 -72.4065 0
      vertex 53.6092 -60.7208 0
      vertex 53.6092 -70.2792 0
    endloop
  endfacet
  facet normal 0 0 -1
    outer loop
      vertex 52.381 -72.4065 0
      vertex 52.381 -58.5935 0
      vertex 53.6092 -60.7208 0
    endloop
  endfacet
  facet normal 0 0 -1
    outer loop
      vertex 50.7373 -74.2319 0
      vertex 52.381 -58.5935 0
      vertex 52.381 -72.4065 0
    endloop
  endfacet
  facet normal 0 0 -1
    outer loop
      vertex 50.7373 -74.2319 0
      vertex 50.7373 -56.7681 0
      vertex 52.381 -58.5935 0
    endloop
  endfacet
  facet normal 0 0 -1
    outer loop
      vertex 48.75 -75.6758 0
      vertex 50.7373 -56.7681 0
      vertex 50.7373 -74.2319 0
    endloop
  endfacet
  facet normal 0 0 -1
    outer loop
      vertex 48.75 -75.6758 0
      vertex 48.75 -55.3242 0
      vertex 50.7373 -56.7681 0
    endloop
  endfacet
  facet normal 0 0 -1
    outer loop
      vertex 44.375 -77.1279 0
      vertex 48.75 -75.6758 0
      vertex 46.506 -76.6749 0
    endloop
  endfacet
  facet normal -0 0 -1
    outer loop
      vertex 48.75 -75.6758 0
      vertex 44.375 -77.1279 0
      vertex 48.75 -55.3242 0
    endloop
  endfacet
  facet normal 0 0 -1
    outer loop
      vertex 44.375 -53.8721 0
      vertex 48.75 -55.3242 0
      vertex 44.375 -77.1279 0
    endloop
  endfacet
  facet normal 0 0 -1
    outer loop
      vertex 48.75 -55.3242 0
      vertex 44.375 -53.8721 0
      vertex 46.506 -54.3251 0
    endloop
  endfacet
  facet normal 0 0 -1
    outer loop
      vertex 44.375 -53.8721 0
      vertex 32.375 -53.5 0
      vertex 44.375 -31 0
    endloop
  endfacet
  facet normal 0 0 -1
    outer loop
      vertex -44.625 -53.5 0
      vertex 44.375 -31 0
      vertex 32.375 -53.5 0
    endloop
  endfacet
  facet normal 0 0 -1
    outer loop
      vertex -44.625 -77.5 0
      vertex -56.625 -77.1279 0
      vertex -44.625 -53.5 0
    endloop
  endfacet
  facet normal 0 0 -1
    outer loop
      vertex -56.625 -53.8721 0
      vertex -44.625 -53.5 0
      vertex -56.625 -77.1279 0
    endloop
  endfacet
  facet normal 0 0 -1
    outer loop
      vertex -56.625 -31 0
      vertex -44.625 -53.5 0
      vertex -56.625 -53.8721 0
    endloop
  endfacet
  facet normal 0 0 -1
    outer loop
      vertex -44.625 -53.5 0
      vertex -56.625 -31 0
      vertex 44.375 -31 0
    endloop
  endfacet
  facet normal 0 1 -0
    outer loop
      vertex 32.375 -77.5 0
      vertex -44.625 -77.5 2
      vertex 32.375 -77.5 2
    endloop
  endfacet
  facet normal 0 1 0
    outer loop
      vertex -44.625 -77.5 2
      vertex 32.375 -77.5 0
      vertex -44.625 -77.5 0
    endloop
  endfacet
  facet normal 0 -1 0
    outer loop
      vertex -44.625 -53.5 0
      vertex 32.375 -53.5 2
      vertex -44.625 -53.5 2
    endloop
  endfacet
  facet normal 0 -1 -0
    outer loop
      vertex 32.375 -53.5 2
      vertex -44.625 -53.5 0
      vertex 32.375 -53.5 0
    endloop
  endfacet
  facet normal 1 -0 0
    outer loop
      vertex -56.625 -77.1279 2.5
      vertex -56.625 -53.8721 2
      vertex -56.625 -53.8721 2.5
    endloop
  endfacet
  facet normal 1 0 0
    outer loop
      vertex -56.625 -53.8721 2
      vertex -56.625 -77.1279 2.5
      vertex -56.625 -77.1279 2
    endloop
  endfacet
  facet normal -1 0 0
    outer loop
      vertex 44.375 -77.1279 2
      vertex 44.375 -53.8721 2.5
      vertex 44.375 -53.8721 2
    endloop
  endfacet
  facet normal -1 -0 0
    outer loop
      vertex 44.375 -53.8721 2.5
      vertex 44.375 -77.1279 2
      vertex 44.375 -77.1279 2.5
    endloop
  endfacet
  facet normal -1 0 0
    outer loop
      vertex -56.625 -31 0
      vertex -56.625 -33 2
      vertex -56.625 -31 10.75
    endloop
  endfacet
  facet normal -1 0 0
    outer loop
      vertex -56.625 -53.8721 0
      vertex -56.625 -33 2
      vertex -56.625 -31 0
    endloop
  endfacet
  facet normal -1 -0 0
    outer loop
      vertex -56.625 -33 2
      vertex -56.625 -53.8721 0
      vertex -56.625 -53.5 2
    endloop
  endfacet
  facet normal -1 -0 0
    outer loop
      vertex -56.625 -53.5 2
      vertex -56.625 -53.8721 0
      vertex -56.625 -53.8721 2
    endloop
  endfacet
  facet normal -1 -0 0
    outer loop
      vertex -56.625 -31 10.75
      vertex -56.625 -33 2
      vertex -56.625 -33 10.75
    endloop
  endfacet
  facet normal -1 0 0
    outer loop
      vertex -56.625 -77.1279 0
      vertex -56.625 -77.5 2
      vertex -56.625 -77.1279 2
    endloop
  endfacet
  facet normal -1 0 0
    outer loop
      vertex -56.625 -100 0
      vertex -56.625 -77.5 2
      vertex -56.625 -77.1279 0
    endloop
  endfacet
  facet normal -1 -0 0
    outer loop
      vertex -56.625 -77.5 2
      vertex -56.625 -100 0
      vertex -56.625 -100 2
    endloop
  endfacet
  facet normal 1 0 0
    outer loop
      vertex 44.375 -33 2
      vertex 44.375 -31 10.75
      vertex 44.375 -33 10.75
    endloop
  endfacet
  facet normal 1 0 0
    outer loop
      vertex 44.375 -31 10.75
      vertex 44.375 -33 2
      vertex 44.375 -31 0
    endloop
  endfacet
  facet normal 1 0 0
    outer loop
      vertex 44.375 -53.8721 0
      vertex 44.375 -33 2
      vertex 44.375 -53.5 2
    endloop
  endfacet
  facet normal 1 0 0
    outer loop
      vertex 44.375 -53.8721 0
      vertex 44.375 -53.5 2
      vertex 44.375 -53.8721 2
    endloop
  endfacet
  facet normal 1 0 0
    outer loop
      vertex 44.375 -33 2
      vertex 44.375 -53.8721 0
      vertex 44.375 -31 0
    endloop
  endfacet
  facet normal 1 -0 0
    outer loop
      vertex 44.375 -77.5 2
      vertex 44.375 -77.1279 0
      vertex 44.375 -77.1279 2
    endloop
  endfacet
  facet normal 1 0 0
    outer loop
      vertex 44.375 -100 0
      vertex 44.375 -77.5 2
      vertex 44.375 -100 2
    endloop
  endfacet
  facet normal 1 0 0
    outer loop
      vertex 44.375 -77.5 2
      vertex 44.375 -100 0
      vertex 44.375 -77.1279 0
    endloop
  endfacet
  facet normal 0 -1 0
    outer loop
      vertex -56.625 -100 0
      vertex -51.625 -100 2
      vertex -56.625 -100 2
    endloop
  endfacet
  facet normal 0 -1 -0
    outer loop
      vertex -51.625 -100 2
      vertex -56.625 -100 0
      vertex 39.375 -100 2
    endloop
  endfacet
  facet normal 0 -1 0
    outer loop
      vertex 44.375 -100 0
      vertex 39.375 -100 2
      vertex -56.625 -100 0
    endloop
  endfacet
  facet normal 0 -1 0
    outer loop
      vertex 39.375 -100 2
      vertex 44.375 -100 0
      vertex 44.375 -100 2
    endloop
  endfacet
  facet normal 0 -1 0
    outer loop
      vertex -51.625 -100 2
      vertex 39.375 -100 4
      vertex -51.625 -100 4
    endloop
  endfacet
  facet normal 0 -1 -0
    outer loop
      vertex 39.375 -100 4
      vertex -51.625 -100 2
      vertex 39.375 -100 2
    endloop
  endfacet
  facet normal 0 1 -0
    outer loop
      vertex 44.375 -31 0
      vertex -56.625 -31 10.75
      vertex 44.375 -31 10.75
    endloop
  endfacet
  facet normal 0 1 0
    outer loop
      vertex -56.625 -31 10.75
      vertex 44.375 -31 0
      vertex -56.625 -31 0
    endloop
  endfacet
  facet normal -1 0 0
    outer loop
      vertex -51.625 -100 2
      vertex -51.625 -98 4
      vertex -51.625 -98 2
    endloop
  endfacet
  facet normal -1 -0 0
    outer loop
      vertex -51.625 -98 4
      vertex -51.625 -100 2
      vertex -51.625 -100 4
    endloop
  endfacet
  facet normal -0 0 1
    outer loop
      vertex -51.625 -98 4
      vertex 39.375 -100 4
      vertex 39.375 -98 4
    endloop
  endfacet
  facet normal 0 0 1
    outer loop
      vertex 39.375 -100 4
      vertex -51.625 -98 4
      vertex -51.625 -100 4
    endloop
  endfacet
  facet normal 1 -0 0
    outer loop
      vertex 39.375 -100 4
      vertex 39.375 -98 2
      vertex 39.375 -98 4
    endloop
  endfacet
  facet normal 1 0 0
    outer loop
      vertex 39.375 -98 2
      vertex 39.375 -100 4
      vertex 39.375 -100 2
    endloop
  endfacet
  facet normal 0 1 -0
    outer loop
      vertex 39.375 -98 2
      vertex -51.625 -98 4
      vertex 39.375 -98 4
    endloop
  endfacet
  facet normal 0 1 0
    outer loop
      vertex -51.625 -98 4
      vertex 39.375 -98 2
      vertex -51.625 -98 2
    endloop
  endfacet
  facet normal -0 0 1
    outer loop
      vertex -56.625 -31 10.75
      vertex 44.375 -33 10.75
      vertex 44.375 -31 10.75
    endloop
  endfacet
  facet normal 0 0 1
    outer loop
      vertex 44.375 -33 10.75
      vertex -56.625 -31 10.75
      vertex -56.625 -33 10.75
    endloop
  endfacet
  facet normal 0 -1 0
    outer loop
      vertex -56.625 -33 2
      vertex 44.375 -33 10.75
      vertex -56.625 -33 10.75
    endloop
  endfacet
  facet normal 0 -1 -0
    outer loop
      vertex 44.375 -33 10.75
      vertex -56.625 -33 2
      vertex 44.375 -33 2
    endloop
  endfacet
  facet normal -0.994522 0.104529 0
    outer loop
      vertex -66.875 -65.5 0
      vertex -66.6182 -63.057 2.5
      vertex -66.6182 -63.057 0
    endloop
  endfacet
  facet normal -0.994522 0.104529 0
    outer loop
      vertex -66.6182 -63.057 2.5
      vertex -66.875 -65.5 0
      vertex -66.875 -65.5 2.5
    endloop
  endfacet
  facet normal -0.406737 0.913545 0
    outer loop
      vertex -58.756 -54.3251 0
      vertex -61 -55.3242 2.5
      vertex -58.756 -54.3251 2.5
    endloop
  endfacet
  facet normal -0.406737 0.913545 0
    outer loop
      vertex -61 -55.3242 2.5
      vertex -58.756 -54.3251 0
      vertex -61 -55.3242 0
    endloop
  endfacet
  facet normal -0.951057 0.309016 0
    outer loop
      vertex -66.6182 -63.057 0
      vertex -65.8592 -60.7208 2.5
      vertex -65.8592 -60.7208 0
    endloop
  endfacet
  facet normal -0.951057 0.309016 0
    outer loop
      vertex -65.8592 -60.7208 2.5
      vertex -66.6182 -63.057 0
      vertex -66.6182 -63.057 2.5
    endloop
  endfacet
  facet normal -0.994522 -0.104529 0
    outer loop
      vertex -66.6182 -67.943 0
      vertex -66.875 -65.5 2.5
      vertex -66.875 -65.5 0
    endloop
  endfacet
  facet normal -0.994522 -0.104529 0
    outer loop
      vertex -66.875 -65.5 2.5
      vertex -66.6182 -67.943 0
      vertex -66.6182 -67.943 2.5
    endloop
  endfacet
  facet normal -0.866025 0.500001 0
    outer loop
      vertex -65.8592 -60.7208 0
      vertex -64.631 -58.5935 2.5
      vertex -64.631 -58.5935 0
    endloop
  endfacet
  facet normal -0.866025 0.500001 0
    outer loop
      vertex -64.631 -58.5935 2.5
      vertex -65.8592 -60.7208 0
      vertex -65.8592 -60.7208 2.5
    endloop
  endfacet
  facet normal -0.587785 0.809017 0
    outer loop
      vertex -61 -55.3242 0
      vertex -62.9873 -56.7681 2.5
      vertex -61 -55.3242 2.5
    endloop
  endfacet
  facet normal -0.587785 0.809017 0
    outer loop
      vertex -62.9873 -56.7681 2.5
      vertex -61 -55.3242 0
      vertex -62.9873 -56.7681 0
    endloop
  endfacet
  facet normal -0.207913 0.978147 0
    outer loop
      vertex -56.625 -53.8721 2
      vertex -58.756 -54.3251 2.5
      vertex -56.625 -53.8721 2.5
    endloop
  endfacet
  facet normal -0.207913 0.978147 0
    outer loop
      vertex -58.756 -54.3251 0
      vertex -56.625 -53.8721 2
      vertex -56.625 -53.8721 0
    endloop
  endfacet
  facet normal -0.207913 0.978147 0
    outer loop
      vertex -56.625 -53.8721 2
      vertex -58.756 -54.3251 0
      vertex -58.756 -54.3251 2.5
    endloop
  endfacet
  facet normal -0.743145 0.669131 0
    outer loop
      vertex -64.631 -58.5935 0
      vertex -62.9873 -56.7681 2.5
      vertex -62.9873 -56.7681 0
    endloop
  endfacet
  facet normal -0.743145 0.669131 0
    outer loop
      vertex -62.9873 -56.7681 2.5
      vertex -64.631 -58.5935 0
      vertex -64.631 -58.5935 2.5
    endloop
  endfacet
  facet normal -0.406737 -0.913545 0
    outer loop
      vertex -61 -75.6758 0
      vertex -58.756 -76.6749 2.5
      vertex -61 -75.6758 2.5
    endloop
  endfacet
  facet normal -0.406737 -0.913545 -0
    outer loop
      vertex -58.756 -76.6749 2.5
      vertex -61 -75.6758 0
      vertex -58.756 -76.6749 0
    endloop
  endfacet
  facet normal -0.743144 -0.669132 0
    outer loop
      vertex -62.9873 -74.2319 0
      vertex -64.631 -72.4065 2.5
      vertex -64.631 -72.4065 0
    endloop
  endfacet
  facet normal -0.743144 -0.669132 0
    outer loop
      vertex -64.631 -72.4065 2.5
      vertex -62.9873 -74.2319 0
      vertex -62.9873 -74.2319 2.5
    endloop
  endfacet
  facet normal -0.951057 -0.309015 0
    outer loop
      vertex -65.8592 -70.2792 0
      vertex -66.6182 -67.943 2.5
      vertex -66.6182 -67.943 0
    endloop
  endfacet
  facet normal -0.951057 -0.309015 0
    outer loop
      vertex -66.6182 -67.943 2.5
      vertex -65.8592 -70.2792 0
      vertex -65.8592 -70.2792 2.5
    endloop
  endfacet
  facet normal 0 0 1
    outer loop
      vertex -61 -55.3242 2.5
      vertex -56.625 -53.8721 2.5
      vertex -58.756 -54.3251 2.5
    endloop
  endfacet
  facet normal 0 0 1
    outer loop
      vertex -56.625 -53.8721 2.5
      vertex -61 -55.3242 2.5
      vertex -56.625 -77.1279 2.5
    endloop
  endfacet
  facet normal -0 0 1
    outer loop
      vertex -61 -75.6758 2.5
      vertex -56.625 -77.1279 2.5
      vertex -61 -55.3242 2.5
    endloop
  endfacet
  facet normal 0 0 1
    outer loop
      vertex -56.625 -77.1279 2.5
      vertex -61 -75.6758 2.5
      vertex -58.756 -76.6749 2.5
    endloop
  endfacet
  facet normal -0 0 1
    outer loop
      vertex -62.9873 -56.7681 2.5
      vertex -61 -75.6758 2.5
      vertex -61 -55.3242 2.5
    endloop
  endfacet
  facet normal 0 0 1
    outer loop
      vertex -62.9873 -56.7681 2.5
      vertex -62.9873 -74.2319 2.5
      vertex -61 -75.6758 2.5
    endloop
  endfacet
  facet normal -0 0 1
    outer loop
      vertex -64.631 -58.5935 2.5
      vertex -62.9873 -74.2319 2.5
      vertex -62.9873 -56.7681 2.5
    endloop
  endfacet
  facet normal 0 0 1
    outer loop
      vertex -64.631 -58.5935 2.5
      vertex -64.631 -72.4065 2.5
      vertex -62.9873 -74.2319 2.5
    endloop
  endfacet
  facet normal -0 0 1
    outer loop
      vertex -65.8592 -60.7208 2.5
      vertex -64.631 -72.4065 2.5
      vertex -64.631 -58.5935 2.5
    endloop
  endfacet
  facet normal 0 0 1
    outer loop
      vertex -65.8592 -60.7208 2.5
      vertex -65.8592 -70.2792 2.5
      vertex -64.631 -72.4065 2.5
    endloop
  endfacet
  facet normal -0 0 1
    outer loop
      vertex -66.6182 -63.057 2.5
      vertex -65.8592 -70.2792 2.5
      vertex -65.8592 -60.7208 2.5
    endloop
  endfacet
  facet normal 0 0 1
    outer loop
      vertex -66.6182 -63.057 2.5
      vertex -66.6182 -67.943 2.5
      vertex -65.8592 -70.2792 2.5
    endloop
  endfacet
  facet normal 0 -0 1
    outer loop
      vertex -66.6182 -67.943 2.5
      vertex -66.6182 -63.057 2.5
      vertex -66.875 -65.5 2.5
    endloop
  endfacet
  facet normal -0.207913 -0.978147 0
    outer loop
      vertex -58.756 -76.6749 2.5
      vertex -56.625 -77.1279 2
      vertex -56.625 -77.1279 2.5
    endloop
  endfacet
  facet normal -0.207913 -0.978147 0
    outer loop
      vertex -58.756 -76.6749 0
      vertex -56.625 -77.1279 2
      vertex -58.756 -76.6749 2.5
    endloop
  endfacet
  facet normal -0.207913 -0.978147 -0
    outer loop
      vertex -56.625 -77.1279 2
      vertex -58.756 -76.6749 0
      vertex -56.625 -77.1279 0
    endloop
  endfacet
  facet normal -0.866025 -0.500001 0
    outer loop
      vertex -64.631 -72.4065 0
      vertex -65.8592 -70.2792 2.5
      vertex -65.8592 -70.2792 0
    endloop
  endfacet
  facet normal -0.866025 -0.500001 0
    outer loop
      vertex -65.8592 -70.2792 2.5
      vertex -64.631 -72.4065 0
      vertex -64.631 -72.4065 2.5
    endloop
  endfacet
  facet normal -0.587785 -0.809017 0
    outer loop
      vertex -62.9873 -74.2319 0
      vertex -61 -75.6758 2.5
      vertex -62.9873 -74.2319 2.5
    endloop
  endfacet
  facet normal -0.587785 -0.809017 -0
    outer loop
      vertex -61 -75.6758 2.5
      vertex -62.9873 -74.2319 0
      vertex -61 -75.6758 0
    endloop
  endfacet
  facet normal 0.406737 0.913545 -0
    outer loop
      vertex 48.75 -55.3242 0
      vertex 46.506 -54.3251 2.5
      vertex 48.75 -55.3242 2.5
    endloop
  endfacet
  facet normal 0.406737 0.913545 0
    outer loop
      vertex 46.506 -54.3251 2.5
      vertex 48.75 -55.3242 0
      vertex 46.506 -54.3251 0
    endloop
  endfacet
  facet normal 0.994522 -0.104529 0
    outer loop
      vertex 54.3682 -67.943 2.5
      vertex 54.625 -65.5 0
      vertex 54.625 -65.5 2.5
    endloop
  endfacet
  facet normal 0.994522 -0.104529 0
    outer loop
      vertex 54.625 -65.5 0
      vertex 54.3682 -67.943 2.5
      vertex 54.3682 -67.943 0
    endloop
  endfacet
  facet normal 0.743143 -0.669133 0
    outer loop
      vertex 50.7373 -74.2319 2.5
      vertex 52.381 -72.4065 0
      vertex 52.381 -72.4065 2.5
    endloop
  endfacet
  facet normal 0.743143 -0.669133 0
    outer loop
      vertex 52.381 -72.4065 0
      vertex 50.7373 -74.2319 2.5
      vertex 50.7373 -74.2319 0
    endloop
  endfacet
  facet normal 0.866026 0.499999 0
    outer loop
      vertex 53.6092 -60.7208 2.5
      vertex 52.381 -58.5935 0
      vertex 52.381 -58.5935 2.5
    endloop
  endfacet
  facet normal 0.866026 0.499999 0
    outer loop
      vertex 52.381 -58.5935 0
      vertex 53.6092 -60.7208 2.5
      vertex 53.6092 -60.7208 0
    endloop
  endfacet
  facet normal 0.743144 0.669132 0
    outer loop
      vertex 52.381 -58.5935 2.5
      vertex 50.7373 -56.7681 0
      vertex 50.7373 -56.7681 2.5
    endloop
  endfacet
  facet normal 0.743144 0.669132 0
    outer loop
      vertex 50.7373 -56.7681 0
      vertex 52.381 -58.5935 2.5
      vertex 52.381 -58.5935 0
    endloop
  endfacet
  facet normal 0.587786 0.809016 -0
    outer loop
      vertex 50.7373 -56.7681 0
      vertex 48.75 -55.3242 2.5
      vertex 50.7373 -56.7681 2.5
    endloop
  endfacet
  facet normal 0.587786 0.809016 0
    outer loop
      vertex 48.75 -55.3242 2.5
      vertex 50.7373 -56.7681 0
      vertex 48.75 -55.3242 0
    endloop
  endfacet
  facet normal 0.207913 0.978147 0
    outer loop
      vertex 46.506 -54.3251 2.5
      vertex 44.375 -53.8721 2
      vertex 44.375 -53.8721 2.5
    endloop
  endfacet
  facet normal 0.207913 0.978147 -0
    outer loop
      vertex 46.506 -54.3251 0
      vertex 44.375 -53.8721 2
      vertex 46.506 -54.3251 2.5
    endloop
  endfacet
  facet normal 0.207913 0.978147 0
    outer loop
      vertex 44.375 -53.8721 2
      vertex 46.506 -54.3251 0
      vertex 44.375 -53.8721 0
    endloop
  endfacet
  facet normal 0.994522 0.104529 0
    outer loop
      vertex 54.625 -65.5 2.5
      vertex 54.3682 -63.057 0
      vertex 54.3682 -63.057 2.5
    endloop
  endfacet
  facet normal 0.994522 0.104529 0
    outer loop
      vertex 54.3682 -63.057 0
      vertex 54.625 -65.5 2.5
      vertex 54.625 -65.5 0
    endloop
  endfacet
  facet normal 0.207913 -0.978147 0
    outer loop
      vertex 44.375 -77.1279 2
      vertex 46.506 -76.6749 2.5
      vertex 44.375 -77.1279 2.5
    endloop
  endfacet
  facet normal 0.207913 -0.978147 0
    outer loop
      vertex 46.506 -76.6749 0
      vertex 44.375 -77.1279 2
      vertex 44.375 -77.1279 0
    endloop
  endfacet
  facet normal 0.207913 -0.978147 0
    outer loop
      vertex 44.375 -77.1279 2
      vertex 46.506 -76.6749 0
      vertex 46.506 -76.6749 2.5
    endloop
  endfacet
  facet normal 0.866026 -0.499999 0
    outer loop
      vertex 52.381 -72.4065 2.5
      vertex 53.6092 -70.2792 0
      vertex 53.6092 -70.2792 2.5
    endloop
  endfacet
  facet normal 0.866026 -0.499999 0
    outer loop
      vertex 53.6092 -70.2792 0
      vertex 52.381 -72.4065 2.5
      vertex 52.381 -72.4065 0
    endloop
  endfacet
  facet normal 0.951057 -0.309017 0
    outer loop
      vertex 53.6092 -70.2792 2.5
      vertex 54.3682 -67.943 0
      vertex 54.3682 -67.943 2.5
    endloop
  endfacet
  facet normal 0.951057 -0.309017 0
    outer loop
      vertex 54.3682 -67.943 0
      vertex 53.6092 -70.2792 2.5
      vertex 53.6092 -70.2792 0
    endloop
  endfacet
  facet normal 0.406737 -0.913545 0
    outer loop
      vertex 46.506 -76.6749 0
      vertex 48.75 -75.6758 2.5
      vertex 46.506 -76.6749 2.5
    endloop
  endfacet
  facet normal 0.406737 -0.913545 0
    outer loop
      vertex 48.75 -75.6758 2.5
      vertex 46.506 -76.6749 0
      vertex 48.75 -75.6758 0
    endloop
  endfacet
  facet normal 0.587786 -0.809016 0
    outer loop
      vertex 48.75 -75.6758 0
      vertex 50.7373 -74.2319 2.5
      vertex 48.75 -75.6758 2.5
    endloop
  endfacet
  facet normal 0.587786 -0.809016 0
    outer loop
      vertex 50.7373 -74.2319 2.5
      vertex 48.75 -75.6758 0
      vertex 50.7373 -74.2319 0
    endloop
  endfacet
  facet normal 0.951057 0.309017 0
    outer loop
      vertex 54.3682 -63.057 2.5
      vertex 53.6092 -60.7208 0
      vertex 53.6092 -60.7208 2.5
    endloop
  endfacet
  facet normal 0.951057 0.309017 0
    outer loop
      vertex 53.6092 -60.7208 0
      vertex 54.3682 -63.057 2.5
      vertex 54.3682 -63.057 0
    endloop
  endfacet
  facet normal 0 0 1
    outer loop
      vertex 54.3682 -63.057 2.5
      vertex 54.3682 -67.943 2.5
      vertex 54.625 -65.5 2.5
    endloop
  endfacet
  facet normal 0 0 1
    outer loop
      vertex 53.6092 -60.7208 2.5
      vertex 54.3682 -67.943 2.5
      vertex 54.3682 -63.057 2.5
    endloop
  endfacet
  facet normal 0 0 1
    outer loop
      vertex 53.6092 -60.7208 2.5
      vertex 53.6092 -70.2792 2.5
      vertex 54.3682 -67.943 2.5
    endloop
  endfacet
  facet normal 0 0 1
    outer loop
      vertex 52.381 -58.5935 2.5
      vertex 53.6092 -70.2792 2.5
      vertex 53.6092 -60.7208 2.5
    endloop
  endfacet
  facet normal 0 0 1
    outer loop
      vertex 52.381 -58.5935 2.5
      vertex 52.381 -72.4065 2.5
      vertex 53.6092 -70.2792 2.5
    endloop
  endfacet
  facet normal 0 0 1
    outer loop
      vertex 50.7373 -56.7681 2.5
      vertex 52.381 -72.4065 2.5
      vertex 52.381 -58.5935 2.5
    endloop
  endfacet
  facet normal 0 0 1
    outer loop
      vertex 50.7373 -56.7681 2.5
      vertex 50.7373 -74.2319 2.5
      vertex 52.381 -72.4065 2.5
    endloop
  endfacet
  facet normal 0 0 1
    outer loop
      vertex 48.75 -55.3242 2.5
      vertex 50.7373 -74.2319 2.5
      vertex 50.7373 -56.7681 2.5
    endloop
  endfacet
  facet normal 0 0 1
    outer loop
      vertex 48.75 -55.3242 2.5
      vertex 48.75 -75.6758 2.5
      vertex 50.7373 -74.2319 2.5
    endloop
  endfacet
  facet normal 0 0 1
    outer loop
      vertex 44.375 -53.8721 2.5
      vertex 48.75 -55.3242 2.5
      vertex 46.506 -54.3251 2.5
    endloop
  endfacet
  facet normal 0 0 1
    outer loop
      vertex 48.75 -55.3242 2.5
      vertex 44.375 -53.8721 2.5
      vertex 48.75 -75.6758 2.5
    endloop
  endfacet
  facet normal 0 0 1
    outer loop
      vertex 44.375 -77.1279 2.5
      vertex 48.75 -75.6758 2.5
      vertex 44.375 -53.8721 2.5
    endloop
  endfacet
  facet normal 0 0 1
    outer loop
      vertex 48.75 -75.6758 2.5
      vertex 44.375 -77.1279 2.5
      vertex 46.506 -76.6749 2.5
    endloop
  endfacet
endsolid OpenSCAD_Model
