solid OpenSCAD_Model
  facet normal 0.844406 0.133743 0.51874
    outer loop
      vertex 25.8978 -111.988 1.5
      vertex 25.2295 -111.648 2.5
      vertex 25.3675 -112.518 2.5
    endloop
  endfacet
  facet normal -0.761749 0.388132 0.518741
    outer loop
      vertex 26.6386 -111.871 2.5
      vertex 25.8978 -111.988 1.5
      vertex 26.2383 -112.656 2.5
    endloop
  endfacet
  facet normal 0 0 1
    outer loop
      vertex 30.5786 -119.656 2.5
      vertex 26.2383 -112.656 2.5
      vertex 28.1255 -119.528 2.5
    endloop
  endfacet
  facet normal 0 0 1
    outer loop
      vertex 26.2383 -112.656 2.5
      vertex 25.7528 -118.892 2.5
      vertex 28.1255 -119.528 2.5
    endloop
  endfacet
  facet normal 0 0 1
    outer loop
      vertex 23.5641 -117.777 2.5
      vertex 26.2383 -112.656 2.5
      vertex 25.3675 -112.518 2.5
    endloop
  endfacet
  facet normal 0 0 1
    outer loop
      vertex 20.1093 -114.322 2.5
      vertex 25.3675 -112.518 2.5
      vertex 25.2295 -111.648 2.5
    endloop
  endfacet
  facet normal 0 0 1
    outer loop
      vertex 26.2383 -112.656 2.5
      vertex 23.5641 -117.777 2.5
      vertex 25.7528 -118.892 2.5
    endloop
  endfacet
  facet normal 0 0 1
    outer loop
      vertex 107.569 -30.3172 2.5
      vertex 104.504 -32.7584 2.5
      vertex 105.127 -33.3819 2.5
    endloop
  endfacet
  facet normal 0 0 1
    outer loop
      vertex 103.471 -27.6561 2.5
      vertex 104.504 -32.7584 2.5
      vertex 105.66 -28.7713 2.5
    endloop
  endfacet
  facet normal 0 0 1
    outer loop
      vertex 104.504 -32.7584 2.5
      vertex 103.471 -27.6561 2.5
      vertex 103.718 -33.1587 2.5
    endloop
  endfacet
  facet normal 0 0 1
    outer loop
      vertex 104.727 -34.1674 2.5
      vertex 110.994 -39.2407 2.5
      vertex 110.865 -36.7876 2.5
    endloop
  endfacet
  facet normal 0 0 1
    outer loop
      vertex 104.727 -34.1674 2.5
      vertex 110.865 -36.7876 2.5
      vertex 110.23 -34.4149 2.5
    endloop
  endfacet
  facet normal 0 0 1
    outer loop
      vertex 110.994 -39.2407 2.5
      vertex 104.727 -34.1674 2.5
      vertex 110.61 -41.6668 2.5
    endloop
  endfacet
  facet normal -0 0 1
    outer loop
      vertex 105.127 -33.3819 2.5
      vertex 110.23 -34.4149 2.5
      vertex 109.114 -32.2262 2.5
    endloop
  endfacet
  facet normal 0 0 1
    outer loop
      vertex 110.61 -41.6668 2.5
      vertex 104.727 -34.1674 2.5
      vertex 109.729 -43.9601 2.5
    endloop
  endfacet
  facet normal 0 0 1
    outer loop
      vertex 105.127 -33.3819 2.5
      vertex 109.114 -32.2262 2.5
      vertex 107.569 -30.3172 2.5
    endloop
  endfacet
  facet normal 0 0 1
    outer loop
      vertex 104.504 -32.7584 2.5
      vertex 107.569 -30.3172 2.5
      vertex 105.66 -28.7713 2.5
    endloop
  endfacet
  facet normal 0 0 1
    outer loop
      vertex 110.23 -34.4149 2.5
      vertex 105.127 -33.3819 2.5
      vertex 104.727 -34.1674 2.5
    endloop
  endfacet
  facet normal 0 0 1
    outer loop
      vertex 109.729 -43.9601 2.5
      vertex 104.727 -34.1674 2.5
      vertex 108.392 -46.0202 2.5
    endloop
  endfacet
  facet normal 0 0 1
    outer loop
      vertex 103.856 -34.0295 2.5
      vertex 108.392 -46.0202 2.5
      vertex 104.727 -34.1674 2.5
    endloop
  endfacet
  facet normal 0 0 1
    outer loop
      vertex 101.098 -27.0204 2.5
      vertex 103.718 -33.1587 2.5
      vertex 103.471 -27.6561 2.5
    endloop
  endfacet
  facet normal 0 0 1
    outer loop
      vertex 98.6452 -26.8918 2.5
      vertex 103.718 -33.1587 2.5
      vertex 101.098 -27.0204 2.5
    endloop
  endfacet
  facet normal -0 0 1
    outer loop
      vertex 96.219 -27.2761 2.5
      vertex 103.718 -33.1587 2.5
      vertex 98.6452 -26.8918 2.5
    endloop
  endfacet
  facet normal -0 0 1
    outer loop
      vertex 93.9257 -28.1564 2.5
      vertex 103.718 -33.1587 2.5
      vertex 96.219 -27.2761 2.5
    endloop
  endfacet
  facet normal 0 0 1
    outer loop
      vertex 103.718 -33.1587 2.5
      vertex 93.9257 -28.1564 2.5
      vertex 103.856 -34.0295 2.5
    endloop
  endfacet
  facet normal -0 0 1
    outer loop
      vertex 91.8656 -29.4942 2.5
      vertex 103.856 -34.0295 2.5
      vertex 93.9257 -28.1564 2.5
    endloop
  endfacet
  facet normal 0 0 1
    outer loop
      vertex 103.856 -34.0295 2.5
      vertex 91.8656 -29.4942 2.5
      vertex 108.392 -46.0202 2.5
    endloop
  endfacet
  facet normal 0 0 1
    outer loop
      vertex 91.8656 -29.4942 2.5
      vertex 37.3582 -117.054 2.5
      vertex 108.392 -46.0202 2.5
    endloop
  endfacet
  facet normal -0 0 1
    outer loop
      vertex 20.8322 -100.528 2.5
      vertex 37.3582 -117.054 2.5
      vertex 91.8656 -29.4942 2.5
    endloop
  endfacet
  facet normal -0 -0 1
    outer loop
      vertex 26.6386 -111.871 2.5
      vertex 37.3582 -117.054 2.5
      vertex 20.8322 -100.528 2.5
    endloop
  endfacet
  facet normal 0 0 1
    outer loop
      vertex 37.3582 -117.054 2.5
      vertex 26.6386 -111.871 2.5
      vertex 35.298 -118.392 2.5
    endloop
  endfacet
  facet normal 0 0 1
    outer loop
      vertex 33.0048 -119.272 2.5
      vertex 26.6386 -111.871 2.5
      vertex 30.5786 -119.656 2.5
    endloop
  endfacet
  facet normal -0 0 1
    outer loop
      vertex 26.2383 -112.656 2.5
      vertex 30.5786 -119.656 2.5
      vertex 26.6386 -111.871 2.5
    endloop
  endfacet
  facet normal 0 0 1
    outer loop
      vertex 35.298 -118.392 2.5
      vertex 26.6386 -111.871 2.5
      vertex 33.0048 -119.272 2.5
    endloop
  endfacet
  facet normal 0 0 1
    outer loop
      vertex 26.6386 -111.871 2.5
      vertex 20.8322 -100.528 2.5
      vertex 26.0151 -111.247 2.5
    endloop
  endfacet
  facet normal 0 0 1
    outer loop
      vertex 25.3675 -112.518 2.5
      vertex 21.6551 -116.231 2.5
      vertex 23.5641 -117.777 2.5
    endloop
  endfacet
  facet normal -0 0 1
    outer loop
      vertex 19.4943 -102.588 2.5
      vertex 26.0151 -111.247 2.5
      vertex 20.8322 -100.528 2.5
    endloop
  endfacet
  facet normal -0 0 1
    outer loop
      vertex 18.614 -104.881 2.5
      vertex 26.0151 -111.247 2.5
      vertex 19.4943 -102.588 2.5
    endloop
  endfacet
  facet normal 0 0 1
    outer loop
      vertex 25.3675 -112.518 2.5
      vertex 20.1093 -114.322 2.5
      vertex 21.6551 -116.231 2.5
    endloop
  endfacet
  facet normal 0 0 1
    outer loop
      vertex 26.0151 -111.247 2.5
      vertex 18.614 -104.881 2.5
      vertex 25.2295 -111.648 2.5
    endloop
  endfacet
  facet normal 0 0 1
    outer loop
      vertex 25.2295 -111.648 2.5
      vertex 18.9941 -112.133 2.5
      vertex 20.1093 -114.322 2.5
    endloop
  endfacet
  facet normal -0 0 1
    outer loop
      vertex 18.2298 -107.307 2.5
      vertex 25.2295 -111.648 2.5
      vertex 18.614 -104.881 2.5
    endloop
  endfacet
  facet normal 0 0 1
    outer loop
      vertex 25.2295 -111.648 2.5
      vertex 18.3583 -109.76 2.5
      vertex 18.9941 -112.133 2.5
    endloop
  endfacet
  facet normal 0 0 1
    outer loop
      vertex 25.2295 -111.648 2.5
      vertex 18.2298 -107.307 2.5
      vertex 18.3583 -109.76 2.5
    endloop
  endfacet
  facet normal -0.60453 -0.604526 0.518741
    outer loop
      vertex 26.6386 -111.871 2.5
      vertex 26.0151 -111.247 2.5
      vertex 25.8978 -111.988 1.5
    endloop
  endfacet
  facet normal 0.388133 -0.761749 0.518741
    outer loop
      vertex 25.8978 -111.988 1.5
      vertex 26.0151 -111.247 2.5
      vertex 25.2295 -111.648 2.5
    endloop
  endfacet
  facet normal 0.13374 0.844407 0.518738
    outer loop
      vertex 26.2383 -112.656 2.5
      vertex 25.8978 -111.988 1.5
      vertex 25.3675 -112.518 2.5
    endloop
  endfacet
  facet normal 0.844407 0.13374 0.518739
    outer loop
      vertex 104.387 -33.4992 1.5
      vertex 103.718 -33.1587 2.5
      vertex 103.856 -34.0295 2.5
    endloop
  endfacet
  facet normal -0.76175 0.388127 0.518743
    outer loop
      vertex 105.127 -33.3819 2.5
      vertex 104.387 -33.4992 1.5
      vertex 104.727 -34.1674 2.5
    endloop
  endfacet
  facet normal -0.604529 -0.604526 0.518742
    outer loop
      vertex 105.127 -33.3819 2.5
      vertex 104.504 -32.7584 2.5
      vertex 104.387 -33.4992 1.5
    endloop
  endfacet
  facet normal 0.38813 -0.761752 0.518739
    outer loop
      vertex 104.387 -33.4992 1.5
      vertex 104.504 -32.7584 2.5
      vertex 103.718 -33.1587 2.5
    endloop
  endfacet
  facet normal 0.13374 0.844406 0.51874
    outer loop
      vertex 104.727 -34.1674 2.5
      vertex 104.387 -33.4992 1.5
      vertex 103.856 -34.0295 2.5
    endloop
  endfacet
  facet normal 0 0 -1
    outer loop
      vertex 110.61 -41.6668 0
      vertex 110.865 -36.7876 0
      vertex 110.994 -39.2407 0
    endloop
  endfacet
  facet normal 0 0 -1
    outer loop
      vertex 110.61 -41.6668 0
      vertex 110.23 -34.4149 0
      vertex 110.865 -36.7876 0
    endloop
  endfacet
  facet normal 0 0 -1
    outer loop
      vertex 109.729 -43.9601 0
      vertex 110.23 -34.4149 0
      vertex 110.61 -41.6668 0
    endloop
  endfacet
  facet normal 0 0 -1
    outer loop
      vertex 109.729 -43.9601 0
      vertex 109.114 -32.2262 0
      vertex 110.23 -34.4149 0
    endloop
  endfacet
  facet normal 0 0 -1
    outer loop
      vertex 108.392 -46.0202 0
      vertex 109.114 -32.2262 0
      vertex 109.729 -43.9601 0
    endloop
  endfacet
  facet normal 0 0 -1
    outer loop
      vertex 108.392 -46.0202 0
      vertex 107.569 -30.3172 0
      vertex 109.114 -32.2262 0
    endloop
  endfacet
  facet normal 0 0 -1
    outer loop
      vertex 108.392 -46.0202 0
      vertex 105.66 -28.7713 0
      vertex 107.569 -30.3172 0
    endloop
  endfacet
  facet normal 0 0 -1
    outer loop
      vertex 108.392 -46.0202 0
      vertex 103.471 -27.6561 0
      vertex 105.66 -28.7713 0
    endloop
  endfacet
  facet normal 0 0 -1
    outer loop
      vertex 108.392 -46.0202 0
      vertex 101.098 -27.0204 0
      vertex 103.471 -27.6561 0
    endloop
  endfacet
  facet normal 0 0 -1
    outer loop
      vertex 108.392 -46.0202 0
      vertex 98.6452 -26.8918 0
      vertex 101.098 -27.0204 0
    endloop
  endfacet
  facet normal 0 0 -1
    outer loop
      vertex 108.392 -46.0202 0
      vertex 96.219 -27.2761 0
      vertex 98.6452 -26.8918 0
    endloop
  endfacet
  facet normal 0 0 -1
    outer loop
      vertex 108.392 -46.0202 0
      vertex 93.9257 -28.1564 0
      vertex 96.219 -27.2761 0
    endloop
  endfacet
  facet normal 0 0 -1
    outer loop
      vertex 108.392 -46.0202 0
      vertex 91.8656 -29.4942 0
      vertex 93.9257 -28.1564 0
    endloop
  endfacet
  facet normal 0 0 -1
    outer loop
      vertex 37.3582 -117.054 0
      vertex 91.8656 -29.4942 0
      vertex 108.392 -46.0202 0
    endloop
  endfacet
  facet normal 0 0 -1
    outer loop
      vertex 20.8322 -100.528 0
      vertex 37.3582 -117.054 0
      vertex 35.298 -118.392 0
    endloop
  endfacet
  facet normal 0 0 -1
    outer loop
      vertex 20.8322 -100.528 0
      vertex 35.298 -118.392 0
      vertex 33.0048 -119.272 0
    endloop
  endfacet
  facet normal 0 0 -1
    outer loop
      vertex 20.8322 -100.528 0
      vertex 33.0048 -119.272 0
      vertex 30.5786 -119.656 0
    endloop
  endfacet
  facet normal 0 0 -1
    outer loop
      vertex 20.8322 -100.528 0
      vertex 30.5786 -119.656 0
      vertex 28.1255 -119.528 0
    endloop
  endfacet
  facet normal 0 0 -1
    outer loop
      vertex 20.8322 -100.528 0
      vertex 28.1255 -119.528 0
      vertex 25.7528 -118.892 0
    endloop
  endfacet
  facet normal 0 0 -1
    outer loop
      vertex 20.8322 -100.528 0
      vertex 25.7528 -118.892 0
      vertex 23.5641 -117.777 0
    endloop
  endfacet
  facet normal 0 0 -1
    outer loop
      vertex 20.8322 -100.528 0
      vertex 23.5641 -117.777 0
      vertex 21.6551 -116.231 0
    endloop
  endfacet
  facet normal 0 0 -1
    outer loop
      vertex 37.3582 -117.054 0
      vertex 20.8322 -100.528 0
      vertex 91.8656 -29.4942 0
    endloop
  endfacet
  facet normal 0 0 -1
    outer loop
      vertex 20.1093 -114.322 0
      vertex 20.8322 -100.528 0
      vertex 21.6551 -116.231 0
    endloop
  endfacet
  facet normal 0 0 -1
    outer loop
      vertex 20.1093 -114.322 0
      vertex 19.4943 -102.588 0
      vertex 20.8322 -100.528 0
    endloop
  endfacet
  facet normal 0 0 -1
    outer loop
      vertex 18.9941 -112.133 0
      vertex 19.4943 -102.588 0
      vertex 20.1093 -114.322 0
    endloop
  endfacet
  facet normal 0 0 -1
    outer loop
      vertex 18.9941 -112.133 0
      vertex 18.614 -104.881 0
      vertex 19.4943 -102.588 0
    endloop
  endfacet
  facet normal 0 0 -1
    outer loop
      vertex 18.3583 -109.76 0
      vertex 18.614 -104.881 0
      vertex 18.9941 -112.133 0
    endloop
  endfacet
  facet normal 0 0 -1
    outer loop
      vertex 18.614 -104.881 0
      vertex 18.3583 -109.76 0
      vertex 18.2298 -107.307 0
    endloop
  endfacet
  facet normal 0.544641 -0.83867 0
    outer loop
      vertex 35.298 -118.392 0
      vertex 37.3582 -117.054 2.5
      vertex 35.298 -118.392 2.5
    endloop
  endfacet
  facet normal 0.544641 -0.83867 0
    outer loop
      vertex 37.3582 -117.054 2.5
      vertex 35.298 -118.392 0
      vertex 37.3582 -117.054 0
    endloop
  endfacet
  facet normal -0.777146 -0.629321 0
    outer loop
      vertex 21.6551 -116.231 0
      vertex 20.1093 -114.322 2.5
      vertex 20.1093 -114.322 0
    endloop
  endfacet
  facet normal -0.777146 -0.629321 0
    outer loop
      vertex 20.1093 -114.322 2.5
      vertex 21.6551 -116.231 0
      vertex 21.6551 -116.231 2.5
    endloop
  endfacet
  facet normal 0.965925 0.258821 0
    outer loop
      vertex 110.865 -36.7876 2.5
      vertex 110.23 -34.4149 0
      vertex 110.23 -34.4149 2.5
    endloop
  endfacet
  facet normal 0.965925 0.258821 0
    outer loop
      vertex 110.23 -34.4149 0
      vertex 110.865 -36.7876 2.5
      vertex 110.865 -36.7876 0
    endloop
  endfacet
  facet normal -0.707107 0.707107 0
    outer loop
      vertex 20.8322 -100.528 0
      vertex 91.8656 -29.4942 2.5
      vertex 91.8656 -29.4942 0
    endloop
  endfacet
  facet normal -0.707107 0.707107 0
    outer loop
      vertex 91.8656 -29.4942 2.5
      vertex 20.8322 -100.528 0
      vertex 20.8322 -100.528 2.5
    endloop
  endfacet
  facet normal 0.707107 -0.707107 0
    outer loop
      vertex 37.3582 -117.054 2.5
      vertex 108.392 -46.0202 0
      vertex 108.392 -46.0202 2.5
    endloop
  endfacet
  facet normal 0.707107 -0.707107 0
    outer loop
      vertex 108.392 -46.0202 0
      vertex 37.3582 -117.054 2.5
      vertex 37.3582 -117.054 0
    endloop
  endfacet
  facet normal -0.99863 -0.0523361 0
    outer loop
      vertex 18.3583 -109.76 0
      vertex 18.2298 -107.307 2.5
      vertex 18.2298 -107.307 0
    endloop
  endfacet
  facet normal -0.99863 -0.0523361 0
    outer loop
      vertex 18.2298 -107.307 2.5
      vertex 18.3583 -109.76 0
      vertex 18.3583 -109.76 2.5
    endloop
  endfacet
  facet normal -0.629321 -0.777146 0
    outer loop
      vertex 21.6551 -116.231 0
      vertex 23.5641 -117.777 2.5
      vertex 21.6551 -116.231 2.5
    endloop
  endfacet
  facet normal -0.629321 -0.777146 -0
    outer loop
      vertex 23.5641 -117.777 2.5
      vertex 21.6551 -116.231 0
      vertex 23.5641 -117.777 0
    endloop
  endfacet
  facet normal 0.987688 -0.156435 0
    outer loop
      vertex 110.61 -41.6668 2.5
      vertex 110.994 -39.2407 0
      vertex 110.994 -39.2407 2.5
    endloop
  endfacet
  facet normal 0.987688 -0.156435 0
    outer loop
      vertex 110.994 -39.2407 0
      vertex 110.61 -41.6668 2.5
      vertex 110.61 -41.6668 0
    endloop
  endfacet
  facet normal 0.838671 -0.544639 0
    outer loop
      vertex 108.392 -46.0202 2.5
      vertex 109.729 -43.9601 0
      vertex 109.729 -43.9601 2.5
    endloop
  endfacet
  facet normal 0.838671 -0.544639 0
    outer loop
      vertex 109.729 -43.9601 0
      vertex 108.392 -46.0202 2.5
      vertex 108.392 -46.0202 0
    endloop
  endfacet
  facet normal 0.891007 0.45399 0
    outer loop
      vertex 110.23 -34.4149 2.5
      vertex 109.114 -32.2262 0
      vertex 109.114 -32.2262 2.5
    endloop
  endfacet
  facet normal 0.891007 0.45399 0
    outer loop
      vertex 109.114 -32.2262 0
      vertex 110.23 -34.4149 2.5
      vertex 110.23 -34.4149 0
    endloop
  endfacet
  facet normal 0.156432 -0.987689 0
    outer loop
      vertex 30.5786 -119.656 0
      vertex 33.0048 -119.272 2.5
      vertex 30.5786 -119.656 2.5
    endloop
  endfacet
  facet normal 0.156432 -0.987689 0
    outer loop
      vertex 33.0048 -119.272 2.5
      vertex 30.5786 -119.656 0
      vertex 33.0048 -119.272 0
    endloop
  endfacet
  facet normal -0.453992 -0.891006 0
    outer loop
      vertex 23.5641 -117.777 0
      vertex 25.7528 -118.892 2.5
      vertex 23.5641 -117.777 2.5
    endloop
  endfacet
  facet normal -0.453992 -0.891006 -0
    outer loop
      vertex 25.7528 -118.892 2.5
      vertex 23.5641 -117.777 0
      vertex 25.7528 -118.892 0
    endloop
  endfacet
  facet normal -0.987688 0.156434 0
    outer loop
      vertex 18.2298 -107.307 0
      vertex 18.614 -104.881 2.5
      vertex 18.614 -104.881 0
    endloop
  endfacet
  facet normal -0.987688 0.156434 0
    outer loop
      vertex 18.614 -104.881 2.5
      vertex 18.2298 -107.307 0
      vertex 18.2298 -107.307 2.5
    endloop
  endfacet
  facet normal -0.93358 0.358368 0
    outer loop
      vertex 18.614 -104.881 0
      vertex 19.4943 -102.588 2.5
      vertex 19.4943 -102.588 0
    endloop
  endfacet
  facet normal -0.93358 0.358368 0
    outer loop
      vertex 19.4943 -102.588 2.5
      vertex 18.614 -104.881 0
      vertex 18.614 -104.881 2.5
    endloop
  endfacet
  facet normal -0.838671 0.544639 0
    outer loop
      vertex 19.4943 -102.588 0
      vertex 20.8322 -100.528 2.5
      vertex 20.8322 -100.528 0
    endloop
  endfacet
  facet normal -0.838671 0.544639 0
    outer loop
      vertex 20.8322 -100.528 2.5
      vertex 19.4943 -102.588 0
      vertex 19.4943 -102.588 2.5
    endloop
  endfacet
  facet normal -0.891006 -0.453991 0
    outer loop
      vertex 20.1093 -114.322 0
      vertex 18.9941 -112.133 2.5
      vertex 18.9941 -112.133 0
    endloop
  endfacet
  facet normal -0.891006 -0.453991 0
    outer loop
      vertex 18.9941 -112.133 2.5
      vertex 20.1093 -114.322 0
      vertex 20.1093 -114.322 2.5
    endloop
  endfacet
  facet normal -0.965926 -0.258819 0
    outer loop
      vertex 18.9941 -112.133 0
      vertex 18.3583 -109.76 2.5
      vertex 18.3583 -109.76 0
    endloop
  endfacet
  facet normal -0.965926 -0.258819 0
    outer loop
      vertex 18.3583 -109.76 2.5
      vertex 18.9941 -112.133 0
      vertex 18.9941 -112.133 2.5
    endloop
  endfacet
  facet normal 0.99863 0.0523344 0
    outer loop
      vertex 110.994 -39.2407 2.5
      vertex 110.865 -36.7876 0
      vertex 110.865 -36.7876 2.5
    endloop
  endfacet
  facet normal 0.99863 0.0523344 0
    outer loop
      vertex 110.865 -36.7876 0
      vertex 110.994 -39.2407 2.5
      vertex 110.994 -39.2407 0
    endloop
  endfacet
  facet normal 0.93358 -0.358368 0
    outer loop
      vertex 109.729 -43.9601 2.5
      vertex 110.61 -41.6668 0
      vertex 110.61 -41.6668 2.5
    endloop
  endfacet
  facet normal 0.93358 -0.358368 0
    outer loop
      vertex 110.61 -41.6668 0
      vertex 109.729 -43.9601 2.5
      vertex 109.729 -43.9601 0
    endloop
  endfacet
  facet normal 0.258819 0.965926 -0
    outer loop
      vertex 103.471 -27.6561 0
      vertex 101.098 -27.0204 2.5
      vertex 103.471 -27.6561 2.5
    endloop
  endfacet
  facet normal 0.258819 0.965926 0
    outer loop
      vertex 101.098 -27.0204 2.5
      vertex 103.471 -27.6561 0
      vertex 101.098 -27.0204 0
    endloop
  endfacet
  facet normal 0.777146 0.629321 0
    outer loop
      vertex 109.114 -32.2262 2.5
      vertex 107.569 -30.3172 0
      vertex 107.569 -30.3172 2.5
    endloop
  endfacet
  facet normal 0.777146 0.629321 0
    outer loop
      vertex 107.569 -30.3172 0
      vertex 109.114 -32.2262 2.5
      vertex 109.114 -32.2262 0
    endloop
  endfacet
  facet normal -0.0523344 -0.99863 0
    outer loop
      vertex 28.1255 -119.528 0
      vertex 30.5786 -119.656 2.5
      vertex 28.1255 -119.528 2.5
    endloop
  endfacet
  facet normal -0.0523344 -0.99863 -0
    outer loop
      vertex 30.5786 -119.656 2.5
      vertex 28.1255 -119.528 0
      vertex 30.5786 -119.656 0
    endloop
  endfacet
  facet normal 0.358368 -0.93358 0
    outer loop
      vertex 33.0048 -119.272 0
      vertex 35.298 -118.392 2.5
      vertex 33.0048 -119.272 2.5
    endloop
  endfacet
  facet normal 0.358368 -0.93358 0
    outer loop
      vertex 35.298 -118.392 2.5
      vertex 33.0048 -119.272 0
      vertex 35.298 -118.392 0
    endloop
  endfacet
  facet normal -0.544639 0.838671 0
    outer loop
      vertex 93.9257 -28.1564 0
      vertex 91.8656 -29.4942 2.5
      vertex 93.9257 -28.1564 2.5
    endloop
  endfacet
  facet normal -0.544639 0.838671 0
    outer loop
      vertex 91.8656 -29.4942 2.5
      vertex 93.9257 -28.1564 0
      vertex 91.8656 -29.4942 0
    endloop
  endfacet
  facet normal 0.453991 0.891006 -0
    outer loop
      vertex 105.66 -28.7713 0
      vertex 103.471 -27.6561 2.5
      vertex 105.66 -28.7713 2.5
    endloop
  endfacet
  facet normal 0.453991 0.891006 0
    outer loop
      vertex 103.471 -27.6561 2.5
      vertex 105.66 -28.7713 0
      vertex 103.471 -27.6561 0
    endloop
  endfacet
  facet normal 0.62932 0.777146 -0
    outer loop
      vertex 107.569 -30.3172 0
      vertex 105.66 -28.7713 2.5
      vertex 107.569 -30.3172 2.5
    endloop
  endfacet
  facet normal 0.62932 0.777146 0
    outer loop
      vertex 105.66 -28.7713 2.5
      vertex 107.569 -30.3172 0
      vertex 105.66 -28.7713 0
    endloop
  endfacet
  facet normal -0.258818 -0.965926 0
    outer loop
      vertex 25.7528 -118.892 0
      vertex 28.1255 -119.528 2.5
      vertex 25.7528 -118.892 2.5
    endloop
  endfacet
  facet normal -0.258818 -0.965926 -0
    outer loop
      vertex 28.1255 -119.528 2.5
      vertex 25.7528 -118.892 0
      vertex 28.1255 -119.528 0
    endloop
  endfacet
  facet normal -0.358368 0.93358 0
    outer loop
      vertex 96.219 -27.2761 0
      vertex 93.9257 -28.1564 2.5
      vertex 96.219 -27.2761 2.5
    endloop
  endfacet
  facet normal -0.358368 0.93358 0
    outer loop
      vertex 93.9257 -28.1564 2.5
      vertex 96.219 -27.2761 0
      vertex 93.9257 -28.1564 0
    endloop
  endfacet
  facet normal -0.156435 0.987688 0
    outer loop
      vertex 98.6452 -26.8918 0
      vertex 96.219 -27.2761 2.5
      vertex 98.6452 -26.8918 2.5
    endloop
  endfacet
  facet normal -0.156435 0.987688 0
    outer loop
      vertex 96.219 -27.2761 2.5
      vertex 98.6452 -26.8918 0
      vertex 96.219 -27.2761 0
    endloop
  endfacet
  facet normal 0.0523359 0.99863 -0
    outer loop
      vertex 101.098 -27.0204 0
      vertex 98.6452 -26.8918 2.5
      vertex 101.098 -27.0204 2.5
    endloop
  endfacet
  facet normal 0.0523359 0.99863 0
    outer loop
      vertex 98.6452 -26.8918 2.5
      vertex 101.098 -27.0204 0
      vertex 98.6452 -26.8918 0
    endloop
  endfacet
endsolid OpenSCAD_Model
